<?xml version="1.0" encoding="UTF-8" standalone="no"?><!-- Generator: Gravit.io --><svg xmlns="http://www.w3.org/2000/svg" xmlns:xlink="http://www.w3.org/1999/xlink" style="isolation:isolate" viewBox="7381.553 1400.461 758.206 243.321" width="758.206pt" height="243.321pt"><g><g><path d=" M 7515.872 1594.823 C 7529.173 1592.358 7541.229 1586.329 7551.011 1577.764 L 7551.011 1577.764 L 7551.011 1577.764 L 7584.794 1611.547 C 7563.109 1631.554 7534.141 1643.783 7502.339 1643.783 C 7440.15 1643.783 7388.797 1597.021 7381.553 1536.771 L 7429.854 1536.771 C 7435.786 1566.234 7459.255 1589.382 7488.887 1594.837 L 7501.65 1619.783 L 7515.872 1594.823 L 7515.872 1594.823 Z  M 7515.374 1449.331 C 7549.975 1455.495 7576.278 1485.761 7576.278 1522.122 C 7576.278 1533.284 7573.799 1543.871 7569.363 1553.364 L 7569.363 1553.364 L 7604.372 1588.373 C 7616.785 1569.305 7624 1546.55 7624 1522.122 C 7624 1454.975 7569.486 1400.461 7502.339 1400.461 C 7440.471 1400.461 7389.327 1446.742 7381.669 1506.541 L 7430.048 1506.541 C 7436.443 1476.777 7460.775 1453.642 7491.157 1449.025 L 7503.834 1426.776 L 7515.374 1449.331 L 7515.374 1449.331 L 7515.374 1449.331 Z  M 7459.337 1522.122 C 7459.337 1498.147 7478.802 1478.682 7502.777 1478.682 C 7526.751 1478.682 7546.216 1498.147 7546.216 1522.122 C 7546.216 1546.097 7526.751 1565.561 7502.777 1565.561 C 7478.802 1565.561 7459.337 1546.097 7459.337 1522.122 Z " fill-rule="evenodd" fill="rgb(255,111,111)"/><path d=" M 7656.573 1496.151 C 7656.573 1511.034 7668.479 1522.792 7683.288 1522.792 C 7694.078 1522.792 7701.743 1517.955 7701.743 1517.955 C 7702.04 1517.731 7702.338 1517.136 7702.338 1516.764 L 7702.263 1496.746 C 7702.263 1496.002 7701.669 1495.332 7700.924 1495.332 L 7685.967 1495.332 C 7685.148 1495.332 7684.553 1495.927 7684.553 1496.746 L 7684.553 1504.113 C 7684.553 1504.857 7685.148 1505.453 7685.967 1505.453 L 7690.656 1505.453 L 7690.656 1509.769 C 7688.423 1510.662 7686.19 1510.96 7684.033 1510.96 C 7675.92 1510.96 7669.297 1504.262 7669.297 1496.151 C 7669.297 1487.965 7675.846 1481.119 7683.958 1481.119 C 7687.604 1481.119 7690.879 1482.086 7693.706 1484.691 C 7694.301 1485.137 7695.12 1485.137 7695.715 1484.616 L 7701.595 1478.365 C 7702.189 1477.77 7702.115 1476.877 7701.446 1476.356 C 7696.385 1471.966 7689.539 1469.361 7683.288 1469.361 C 7668.479 1469.361 7656.573 1481.268 7656.573 1496.151 Z  M 7753.124 1520.708 C 7753.124 1521.452 7753.794 1522.122 7754.538 1522.122 L 7763.468 1522.122 C 7764.211 1522.122 7764.882 1521.452 7764.882 1520.708 L 7764.882 1471.445 C 7764.882 1470.7 7764.211 1470.031 7763.468 1470.031 L 7754.538 1470.031 C 7753.794 1470.031 7753.124 1470.7 7753.124 1471.445 L 7753.124 1520.708 Z  M 7824.97 1520.708 C 7824.97 1521.452 7825.639 1522.122 7826.384 1522.122 L 7835.312 1522.122 C 7836.057 1522.122 7836.726 1521.452 7836.726 1520.708 L 7836.726 1480.97 L 7847.368 1480.97 C 7848.187 1480.97 7848.782 1480.3 7848.782 1479.556 L 7848.782 1471.445 C 7848.782 1470.7 7848.187 1470.031 7847.368 1470.031 L 7814.328 1470.031 C 7813.509 1470.031 7812.913 1470.7 7812.913 1471.445 L 7812.913 1479.556 C 7812.913 1480.3 7813.509 1480.97 7814.328 1480.97 L 7824.97 1480.97 L 7824.97 1520.708 Z  M 7896.814 1520.708 C 7896.814 1521.452 7897.485 1522.122 7898.228 1522.122 L 7907.084 1522.122 C 7907.902 1522.122 7908.498 1521.452 7908.498 1520.708 L 7908.498 1501.137 L 7929.781 1501.137 L 7929.781 1520.708 C 7929.781 1521.452 7930.376 1522.122 7931.195 1522.122 L 7940.051 1522.122 C 7940.794 1522.122 7941.465 1521.452 7941.465 1520.708 L 7941.465 1471.445 C 7941.465 1470.7 7940.794 1470.031 7940.051 1470.031 L 7931.195 1470.031 C 7930.376 1470.031 7929.781 1470.7 7929.781 1471.445 L 7929.781 1490.197 L 7908.498 1490.197 L 7908.498 1471.445 C 7908.498 1470.7 7907.902 1470.031 7907.084 1470.031 L 7898.228 1470.031 C 7897.485 1470.031 7896.814 1470.7 7896.814 1471.445 L 7896.814 1520.708 Z  M 7994.11 1502.178 C 7994.11 1513.49 8003.561 1522.866 8015.245 1522.866 C 8027.001 1522.866 8036.528 1513.49 8036.528 1502.178 L 8036.528 1471.445 C 8036.528 1470.7 8035.857 1470.031 8035.114 1470.031 L 8025.961 1470.031 C 8025.141 1470.031 8024.547 1470.7 8024.547 1471.445 L 8024.547 1501.583 C 8024.547 1506.792 8020.603 1510.96 8015.245 1510.96 C 8009.961 1510.96 8006.091 1506.792 8006.091 1501.583 L 8006.091 1471.445 C 8006.091 1470.7 8005.495 1470.031 8004.678 1470.031 L 7995.524 1470.031 C 7994.779 1470.031 7994.11 1470.7 7994.11 1471.445 L 7994.11 1502.178 Z  M 8089.099 1520.708 C 8089.099 1521.452 8089.694 1522.122 8090.513 1522.122 L 8108.968 1522.122 C 8117.823 1522.122 8125.191 1516.094 8125.191 1507.76 C 8125.191 1500.913 8119.162 1497.267 8115.218 1495.63 C 8118.716 1493.769 8123.851 1489.602 8123.851 1483.872 C 8123.851 1476.058 8116.632 1470.031 8107.852 1470.031 L 8090.513 1470.031 C 8089.694 1470.031 8089.099 1470.7 8089.099 1471.445 L 8089.099 1520.708 Z  M 8100.707 1491.165 L 8100.707 1480.747 L 8106.512 1480.747 C 8109.34 1480.747 8111.722 1482.83 8111.722 1485.807 C 8111.722 1488.784 8109.34 1491.165 8106.512 1491.165 L 8100.707 1491.165 Z  M 8100.707 1511.48 L 8100.707 1500.839 L 8106.735 1500.839 C 8109.637 1500.839 8112.838 1503.071 8112.838 1506.048 C 8112.838 1509.099 8110.382 1511.48 8107.48 1511.48 L 8100.707 1511.48 Z " fill="rgb(233,233,233)"/><path d=" M 7676.404 1574.343 L 7676.404 1571.66 L 7663.57 1571.66 L 7663.57 1563.322 L 7676.15 1563.322 L 7676.15 1560.639 L 7663.57 1560.639 L 7663.57 1552.845 L 7676.404 1552.845 L 7676.404 1550.162 L 7660.561 1550.162 L 7660.561 1574.343 L 7676.404 1574.343 Z  M 7737.782 1574.343 L 7728.392 1561.908 L 7737.239 1550.162 L 7733.576 1550.162 L 7726.435 1559.842 L 7719.256 1550.162 L 7715.595 1550.162 L 7724.477 1561.944 L 7715.051 1574.343 L 7718.712 1574.343 L 7726.435 1564.047 L 7734.157 1574.343 L 7737.782 1574.343 Z  M 7780.343 1574.343 L 7780.343 1564.736 L 7787.051 1564.736 C 7791.837 1564.736 7794.628 1561.401 7794.628 1557.449 C 7794.628 1553.497 7791.909 1550.162 7787.051 1550.162 L 7777.336 1550.162 L 7777.336 1574.343 L 7780.343 1574.343 Z  M 7786.688 1562.053 L 7780.343 1562.053 L 7780.343 1552.845 L 7786.688 1552.845 C 7789.553 1552.845 7791.511 1554.73 7791.511 1557.449 C 7791.511 1560.168 7789.553 1562.053 7786.688 1562.053 Z  M 7849.118 1574.343 L 7849.118 1571.66 L 7837.88 1571.66 L 7837.88 1550.162 L 7834.87 1550.162 L 7834.87 1574.343 L 7849.118 1574.343 Z  M 7899.402 1574.778 C 7906.545 1574.778 7911.402 1569.413 7911.402 1562.271 C 7911.402 1555.129 7906.545 1549.763 7899.402 1549.763 C 7892.224 1549.763 7887.401 1555.129 7887.401 1562.271 C 7887.401 1569.413 7892.224 1574.778 7899.402 1574.778 Z  M 7899.402 1572.095 C 7893.964 1572.095 7890.52 1567.89 7890.52 1562.271 C 7890.52 1556.615 7893.964 1552.446 7899.402 1552.446 C 7904.804 1552.446 7908.284 1556.615 7908.284 1562.271 C 7908.284 1567.89 7904.804 1572.095 7899.402 1572.095 Z  M 7969.915 1574.343 L 7963.391 1564.482 C 7966.689 1564.192 7969.662 1561.799 7969.662 1557.449 C 7969.662 1552.99 7966.508 1550.162 7962.085 1550.162 L 7952.37 1550.162 L 7952.37 1574.343 L 7955.377 1574.343 L 7955.377 1564.736 L 7960.2 1564.736 L 7966.363 1574.343 L 7969.915 1574.343 Z  M 7961.722 1562.089 L 7955.377 1562.089 L 7955.377 1552.845 L 7961.722 1552.845 C 7964.587 1552.845 7966.544 1554.73 7966.544 1557.449 C 7966.544 1560.168 7964.587 1562.089 7961.722 1562.089 Z  M 8026.507 1574.343 L 8026.507 1571.66 L 8013.675 1571.66 L 8013.675 1563.322 L 8026.254 1563.322 L 8026.254 1560.639 L 8013.675 1560.639 L 8013.675 1552.845 L 8026.507 1552.845 L 8026.507 1550.162 L 8010.665 1550.162 L 8010.665 1574.343 L 8026.507 1574.343 Z  M 8085.094 1574.343 L 8078.569 1564.482 C 8081.868 1564.192 8084.84 1561.799 8084.84 1557.449 C 8084.84 1552.99 8081.686 1550.162 8077.264 1550.162 L 8067.548 1550.162 L 8067.548 1574.343 L 8070.556 1574.343 L 8070.556 1564.736 L 8075.378 1564.736 L 8081.542 1574.343 L 8085.094 1574.343 Z  M 8076.901 1562.089 L 8070.556 1562.089 L 8070.556 1552.845 L 8076.901 1552.845 C 8079.766 1552.845 8081.723 1554.73 8081.723 1557.449 C 8081.723 1560.168 8079.766 1562.089 8076.901 1562.089 Z  M 8127.185 1574.706 C 8128.272 1574.706 8129.18 1573.799 8129.18 1572.712 C 8129.18 1571.624 8128.272 1570.718 8127.185 1570.718 C 8126.098 1570.718 8125.191 1571.624 8125.191 1572.712 C 8125.191 1573.799 8126.098 1574.706 8127.185 1574.706 Z " fill="rgb(235,235,235)"/></g><g><path d=" M 8128.186 1568.929 L 8127.55 1570.506 L 8128.84 1570.506 L 8128.186 1568.929 Z " fill="rgb(0,0,0)"/><path d=" M 8128.194 1574.567 L 8128.83 1572.99 L 8127.54 1572.99 L 8128.194 1574.567 Z " fill="rgb(0,0,0)"/><path d=" M 8130.968 1571.703 L 8129.391 1571.067 L 8129.391 1572.357 L 8130.968 1571.703 Z " fill="rgb(0,0,0)"/><path d=" M 8125.403 1571.721 L 8126.98 1572.357 L 8126.98 1571.067 L 8125.403 1571.721 Z " fill="rgb(0,0,0)"/><g><path d=" M 8128.194 1578.4 C 8131.836 1578.4 8134.875 1575.364 8134.875 1571.721 C 8134.875 1568.078 8131.836 1565.042 8128.194 1565.042 C 8124.553 1565.042 8121.514 1568.078 8121.514 1571.721 C 8121.514 1575.364 8124.553 1578.4 8128.194 1578.4 Z " fill="rgb(235,235,235)"/><path d=" M 8128.154 1560.158 L 8125.359 1567.091 L 8131.029 1567.091 L 8128.154 1560.158 Z " fill="rgb(235,235,235)"/><path d=" M 8128.194 1583.284 L 8130.99 1576.351 L 8125.319 1576.351 L 8128.194 1583.284 Z " fill="rgb(235,235,235)"/><path d=" M 8139.759 1571.681 L 8132.826 1568.886 L 8132.826 1574.556 L 8139.759 1571.681 Z " fill="rgb(235,235,235)"/><path d=" M 8116.63 1571.761 L 8123.562 1574.556 L 8123.562 1568.886 L 8116.63 1571.761 Z " fill="rgb(235,235,235)"/></g></g></g></svg>