<?xml version="1.0" encoding="UTF-8" standalone="no"?><!-- Generator: Gravit.io --><svg xmlns="http://www.w3.org/2000/svg" xmlns:xlink="http://www.w3.org/1999/xlink" style="isolation:isolate" viewBox="30 30 160 51.347" width="160pt" height="51.347pt"><g><g><path d=" M 58.345 71.015 C 61.151 70.495 63.696 69.223 65.76 67.415 L 65.76 67.415 L 65.76 67.415 L 72.889 74.544 C 68.313 78.766 62.2 81.347 55.489 81.347 C 42.365 81.347 31.529 71.479 30 58.765 L 40.193 58.765 C 41.445 64.982 46.397 69.867 52.65 71.018 L 55.343 76.282 L 58.345 71.015 L 58.345 71.015 Z  M 58.24 40.313 C 65.541 41.614 71.092 48 71.092 55.673 C 71.092 58.029 70.569 60.263 69.632 62.266 L 69.632 62.266 L 77.02 69.654 C 79.64 65.63 81.162 60.828 81.162 55.673 C 81.162 41.504 69.658 30 55.489 30 C 42.433 30 31.641 39.766 30.024 52.385 L 40.234 52.385 C 41.583 46.105 46.718 41.222 53.129 40.248 L 55.804 35.553 L 58.24 40.313 L 58.24 40.313 L 58.24 40.313 Z  M 46.414 55.673 C 46.414 50.614 50.522 46.507 55.581 46.507 C 60.64 46.507 64.748 50.614 64.748 55.673 C 64.748 60.733 60.64 64.84 55.581 64.84 C 50.522 64.84 46.414 60.733 46.414 55.673 Z " fill-rule="evenodd" fill="rgb(255,111,111)"/><path d=" M 88.036 50.193 C 88.036 53.334 90.548 55.815 93.673 55.815 C 95.95 55.815 97.568 54.794 97.568 54.794 C 97.631 54.747 97.693 54.621 97.693 54.543 L 97.678 50.318 C 97.678 50.161 97.552 50.02 97.395 50.02 L 94.239 50.02 C 94.066 50.02 93.94 50.146 93.94 50.318 L 93.94 51.873 C 93.94 52.03 94.066 52.156 94.239 52.156 L 95.228 52.156 L 95.228 53.067 C 94.757 53.255 94.286 53.318 93.831 53.318 C 92.119 53.318 90.721 51.905 90.721 50.193 C 90.721 48.465 92.103 47.021 93.815 47.021 C 94.584 47.021 95.275 47.225 95.872 47.775 C 95.997 47.869 96.17 47.869 96.296 47.759 L 97.537 46.44 C 97.662 46.314 97.646 46.126 97.505 46.016 C 96.437 45.089 94.993 44.54 93.673 44.54 C 90.548 44.54 88.036 47.052 88.036 50.193 Z  M 108.411 55.375 C 108.411 55.532 108.552 55.673 108.709 55.673 L 110.593 55.673 C 110.75 55.673 110.892 55.532 110.892 55.375 L 110.892 44.979 C 110.892 44.822 110.75 44.681 110.593 44.681 L 108.709 44.681 C 108.552 44.681 108.411 44.822 108.411 44.979 L 108.411 55.375 Z  M 123.572 55.375 C 123.572 55.532 123.713 55.673 123.87 55.673 L 125.754 55.673 C 125.911 55.673 126.053 55.532 126.053 55.375 L 126.053 46.989 L 128.298 46.989 C 128.471 46.989 128.597 46.848 128.597 46.691 L 128.597 44.979 C 128.597 44.822 128.471 44.681 128.298 44.681 L 121.326 44.681 C 121.153 44.681 121.028 44.822 121.028 44.979 L 121.028 46.691 C 121.028 46.848 121.153 46.989 121.326 46.989 L 123.572 46.989 L 123.572 55.375 Z  M 138.733 55.375 C 138.733 55.532 138.874 55.673 139.031 55.673 L 140.9 55.673 C 141.072 55.673 141.198 55.532 141.198 55.375 L 141.198 51.245 L 145.689 51.245 L 145.689 55.375 C 145.689 55.532 145.815 55.673 145.988 55.673 L 147.857 55.673 C 148.014 55.673 148.155 55.532 148.155 55.375 L 148.155 44.979 C 148.155 44.822 148.014 44.681 147.857 44.681 L 145.988 44.681 C 145.815 44.681 145.689 44.822 145.689 44.979 L 145.689 48.936 L 141.198 48.936 L 141.198 44.979 C 141.198 44.822 141.072 44.681 140.9 44.681 L 139.031 44.681 C 138.874 44.681 138.733 44.822 138.733 44.979 L 138.733 55.375 Z  M 159.264 51.465 C 159.264 53.852 161.259 55.83 163.725 55.83 C 166.205 55.83 168.216 53.852 168.216 51.465 L 168.216 44.979 C 168.216 44.822 168.074 44.681 167.917 44.681 L 165.986 44.681 C 165.813 44.681 165.687 44.822 165.687 44.979 L 165.687 51.339 C 165.687 52.438 164.855 53.318 163.725 53.318 C 162.609 53.318 161.793 52.438 161.793 51.339 L 161.793 44.979 C 161.793 44.822 161.667 44.681 161.495 44.681 L 159.563 44.681 C 159.406 44.681 159.264 44.822 159.264 44.979 L 159.264 51.465 Z  M 179.31 55.375 C 179.31 55.532 179.435 55.673 179.608 55.673 L 183.502 55.673 C 185.371 55.673 186.926 54.401 186.926 52.643 C 186.926 51.198 185.654 50.428 184.821 50.083 C 185.559 49.69 186.643 48.811 186.643 47.602 C 186.643 45.953 185.12 44.681 183.267 44.681 L 179.608 44.681 C 179.435 44.681 179.31 44.822 179.31 44.979 L 179.31 55.375 Z  M 181.759 49.141 L 181.759 46.942 L 182.984 46.942 C 183.581 46.942 184.084 47.382 184.084 48.01 C 184.084 48.638 183.581 49.141 182.984 49.141 L 181.759 49.141 Z  M 181.759 53.428 L 181.759 51.182 L 183.031 51.182 C 183.644 51.182 184.319 51.653 184.319 52.281 C 184.319 52.925 183.801 53.428 183.188 53.428 L 181.759 53.428 Z " fill="rgb(91,91,91)"/><path d=" M 92.221 66.693 L 92.221 66.127 L 89.512 66.127 L 89.512 64.368 L 92.167 64.368 L 92.167 63.801 L 89.512 63.801 L 89.512 62.157 L 92.221 62.157 L 92.221 61.591 L 88.878 61.591 L 88.878 66.693 L 92.221 66.693 Z  M 105.173 66.693 L 103.192 64.069 L 105.058 61.591 L 104.285 61.591 L 102.779 63.633 L 101.264 61.591 L 100.491 61.591 L 102.365 64.077 L 100.376 66.693 L 101.149 66.693 L 102.779 64.521 L 104.408 66.693 L 105.173 66.693 Z  M 114.154 66.693 L 114.154 64.666 L 115.57 64.666 C 116.58 64.666 117.169 63.962 117.169 63.128 C 117.169 62.294 116.595 61.591 115.57 61.591 L 113.52 61.591 L 113.52 66.693 L 114.154 66.693 Z  M 115.493 64.1 L 114.154 64.1 L 114.154 62.157 L 115.493 62.157 C 116.098 62.157 116.511 62.555 116.511 63.128 C 116.511 63.702 116.098 64.1 115.493 64.1 Z  M 128.668 66.693 L 128.668 66.127 L 126.296 66.127 L 126.296 61.591 L 125.661 61.591 L 125.661 66.693 L 128.668 66.693 Z  M 139.279 66.785 C 140.786 66.785 141.811 65.653 141.811 64.146 C 141.811 62.639 140.786 61.506 139.279 61.506 C 137.764 61.506 136.746 62.639 136.746 64.146 C 136.746 65.653 137.764 66.785 139.279 66.785 Z  M 139.279 66.219 C 138.131 66.219 137.404 65.332 137.404 64.146 C 137.404 62.952 138.131 62.073 139.279 62.073 C 140.419 62.073 141.153 62.952 141.153 64.146 C 141.153 65.332 140.419 66.219 139.279 66.219 Z  M 154.159 66.693 L 152.782 64.612 C 153.478 64.551 154.105 64.046 154.105 63.128 C 154.105 62.187 153.44 61.591 152.506 61.591 L 150.456 61.591 L 150.456 66.693 L 151.091 66.693 L 151.091 64.666 L 152.109 64.666 L 153.409 66.693 L 154.159 66.693 Z  M 152.43 64.107 L 151.091 64.107 L 151.091 62.157 L 152.43 62.157 C 153.034 62.157 153.447 62.555 153.447 63.128 C 153.447 63.702 153.034 64.107 152.43 64.107 Z  M 166.101 66.693 L 166.101 66.127 L 163.393 66.127 L 163.393 64.368 L 166.048 64.368 L 166.048 63.801 L 163.393 63.801 L 163.393 62.157 L 166.101 62.157 L 166.101 61.591 L 162.758 61.591 L 162.758 66.693 L 166.101 66.693 Z  M 178.464 66.693 L 177.087 64.612 C 177.784 64.551 178.411 64.046 178.411 63.128 C 178.411 62.187 177.745 61.591 176.812 61.591 L 174.762 61.591 L 174.762 66.693 L 175.397 66.693 L 175.397 64.666 L 176.414 64.666 L 177.715 66.693 L 178.464 66.693 Z  M 176.735 64.107 L 175.397 64.107 L 175.397 62.157 L 176.735 62.157 C 177.34 62.157 177.753 62.555 177.753 63.128 C 177.753 63.702 177.34 64.107 176.735 64.107 Z  M 187.347 66.77 C 187.576 66.77 187.768 66.579 187.768 66.349 C 187.768 66.12 187.576 65.928 187.347 65.928 C 187.117 65.928 186.926 66.12 186.926 66.349 C 186.926 66.579 187.117 66.77 187.347 66.77 Z " fill="rgb(91,91,91)"/></g><path d=" M 186.227 66.595 C 186.369 67.001 186.694 67.327 187.099 67.47 L 187.559 68.58 L 188.005 67.475 C 188.419 67.334 188.751 67.003 188.894 66.59 L 190 66.132 L 188.892 65.685 C 188.749 65.276 188.42 64.948 188.01 64.806 L 187.551 63.7 L 187.104 64.808 C 186.695 64.951 186.367 65.28 186.226 65.69 L 185.119 66.148 L 186.227 66.595 Z " fill-rule="evenodd" fill="rgb(91,91,91)"/></g></svg>